<!DOCTYPE svg PUBLIC "-//W3C//DTD SVG 1.1//EN" "http://www.w3.org/Graphics/SVG/1.1/DTD/svg11.dtd">
<!-- Uploaded to: SVG Repo, www.svgrepo.com, Transformed by: SVG Repo Mixer Tools -->
<svg height="800px" width="800px" version="1.1" id="_x32_" xmlns="http://www.w3.org/2000/svg" xmlns:xlink="http://www.w3.org/1999/xlink" viewBox="0 0 512 512" xml:space="preserve" fill="#000000">
<g id="SVGRepo_bgCarrier" stroke-width="0"/>
<g id="SVGRepo_tracerCarrier" stroke-linecap="round" stroke-linejoin="round"/>
<g id="SVGRepo_iconCarrier"> <style type="text/css"> .st0{fill:#ffffff;} </style> <g> <path class="st0" d="M484.456,133.457c-4.67-6.204-9.383-10.842-13.952-14.288v-35.62l12.745-0.494l24.744-0.982V57.311V27.067 V1.308h-25.759H364.851h-25.759v25.759v31.72v25.759h25.759h15.966c0.428,9.944,0.125,22.715-2.348,36.366 C364.29,199.137,268.23,306.465,153.07,335.394c-22.706,5.701-45.824,8.594-68.715,8.594c-16.276,0-27.134-1.542-29.717-1.954 c-3.303-0.763-6.683-1.149-10.07-1.149c-18.012,0-34.144,10.742-41.096,27.378c-8.226,19.738,0.16,39.67,4.662,50.378 c4.31,10.456,36.098,76.438,155.887,89.477c15.714,1.71,31.351,2.574,46.495,2.574c146.243,0,252.549-77.755,291.649-213.324 C523.765,222.472,506.123,162.259,484.456,133.457z M477.413,290.232c-37.289,129.289-138.648,194.701-266.896,194.701 c-14.263,0-28.845-0.805-43.712-2.423C53.95,470.225,31.881,408.654,31.881,408.654c-4.888-11.622-8.25-21.793-4.636-30.463 c2.977-7.127,9.902-11.546,17.324-11.546c1.61,0,3.236,0.209,4.855,0.637c0,0,13.223,2.465,34.932,2.465 c19.36,0,45.48-1.962,74.988-9.374c117.96-29.632,227.578-141.69,244.474-234.865c6.591-36.349,0-66.72,0-66.72h-38.966v-31.72 h117.382v30.244l-37.49,1.476v76.891C466.528,135.679,502.987,201.561,477.413,290.232z"/> <path class="st0" d="M432.326,188.689c-2.339-0.386-4.553,1.191-4.939,3.531c-14.137,84.621-60.489,142.168-115.16,179.247 c-54.654,37.045-117.71,53.329-164.079,54.712c-2.372,0.076-4.234,2.055-4.167,4.42c0.075,2.372,2.054,4.234,4.418,4.167 c48.08-1.476,112.376-18.103,168.641-56.188c56.23-38.052,104.327-97.845,118.816-184.95 C436.242,191.289,434.666,189.075,432.326,188.689z"/> </g> </g>
</svg>